<mxfile host="app.diagrams.net" modified="2023-05-08T05:46:45.500Z" agent="Mozilla/5.0 (Windows NT 10.0; Win64; x64) AppleWebKit/537.36 (KHTML, like Gecko) Chrome/109.0.0.0 Safari/537.36" etag="Khy6KLq7iAbgDxarw6vt" version="21.2.9" type="google">
  <diagram name="Page-1" id="_yAZgfl6K33elxYQ6BrX">
    <mxGraphModel grid="1" page="1" gridSize="10" guides="1" tooltips="1" connect="1" arrows="1" fold="1" pageScale="1" pageWidth="850" pageHeight="1100" math="0" shadow="0">
      <root>
        <mxCell id="0" />
        <mxCell id="1" parent="0" />
        <object label="" id="HwVrFzxqRJaYthM1YMdk-1">
          <mxCell style="ellipse;whiteSpace=wrap;html=1;aspect=fixed;" vertex="1" parent="1">
            <mxGeometry x="377.5" y="525" width="175" height="175" as="geometry" />
          </mxCell>
        </object>
        <mxCell id="HwVrFzxqRJaYthM1YMdk-2" value="Verifikasi pengaduan&lt;br&gt;2.2" style="text;strokeColor=none;align=center;fillColor=none;html=1;verticalAlign=middle;whiteSpace=wrap;rounded=0;" vertex="1" parent="1">
          <mxGeometry x="435" y="602.5" width="60" height="30" as="geometry" />
        </mxCell>
        <mxCell id="HwVrFzxqRJaYthM1YMdk-4" style="edgeStyle=orthogonalEdgeStyle;rounded=0;orthogonalLoop=1;jettySize=auto;html=1;exitX=0.5;exitY=0;exitDx=0;exitDy=0;entryX=0.4;entryY=0.971;entryDx=0;entryDy=0;entryPerimeter=0;" edge="1" parent="1" source="HwVrFzxqRJaYthM1YMdk-5" target="HwVrFzxqRJaYthM1YMdk-34">
          <mxGeometry relative="1" as="geometry" />
        </mxCell>
        <mxCell id="HwVrFzxqRJaYthM1YMdk-5" value="" style="whiteSpace=wrap;html=1;aspect=fixed;" vertex="1" parent="1">
          <mxGeometry x="100" y="572.5" width="80" height="80" as="geometry" />
        </mxCell>
        <mxCell id="HwVrFzxqRJaYthM1YMdk-9" value="Pelapor" style="text;strokeColor=none;align=center;fillColor=none;html=1;verticalAlign=middle;whiteSpace=wrap;rounded=0;" vertex="1" parent="1">
          <mxGeometry x="110" y="592.5" width="60" height="30" as="geometry" />
        </mxCell>
        <mxCell id="HwVrFzxqRJaYthM1YMdk-16" style="edgeStyle=orthogonalEdgeStyle;rounded=0;orthogonalLoop=1;jettySize=auto;html=1;exitX=0.25;exitY=1;exitDx=0;exitDy=0;entryX=0.378;entryY=0.019;entryDx=0;entryDy=0;entryPerimeter=0;" edge="1" parent="1" source="HwVrFzxqRJaYthM1YMdk-17" target="HwVrFzxqRJaYthM1YMdk-1">
          <mxGeometry relative="1" as="geometry" />
        </mxCell>
        <mxCell id="HwVrFzxqRJaYthM1YMdk-17" value="" style="whiteSpace=wrap;html=1;aspect=fixed;" vertex="1" parent="1">
          <mxGeometry x="700" y="330" width="80" height="80" as="geometry" />
        </mxCell>
        <mxCell id="HwVrFzxqRJaYthM1YMdk-18" value="Pemeriksa" style="text;strokeColor=none;align=center;fillColor=none;html=1;verticalAlign=middle;whiteSpace=wrap;rounded=0;" vertex="1" parent="1">
          <mxGeometry x="710" y="355" width="60" height="30" as="geometry" />
        </mxCell>
        <mxCell id="HwVrFzxqRJaYthM1YMdk-19" style="edgeStyle=orthogonalEdgeStyle;rounded=0;orthogonalLoop=1;jettySize=auto;html=1;exitX=0.5;exitY=0;exitDx=0;exitDy=0;entryX=0.5;entryY=-0.333;entryDx=0;entryDy=0;entryPerimeter=0;" edge="1" parent="1" source="HwVrFzxqRJaYthM1YMdk-18" target="HwVrFzxqRJaYthM1YMdk-18">
          <mxGeometry relative="1" as="geometry" />
        </mxCell>
        <mxCell id="HwVrFzxqRJaYthM1YMdk-24" value="bukti dukung" style="text;strokeColor=none;align=center;fillColor=none;html=1;verticalAlign=middle;whiteSpace=wrap;rounded=0;" vertex="1" parent="1">
          <mxGeometry x="520" y="440" width="100" height="30" as="geometry" />
        </mxCell>
        <mxCell id="HwVrFzxqRJaYthM1YMdk-31" value="" style="edgeStyle=orthogonalEdgeStyle;rounded=0;orthogonalLoop=1;jettySize=auto;html=1;exitX=0.5;exitY=0;exitDx=0;exitDy=0;entryX=0;entryY=0.25;entryDx=0;entryDy=0;" edge="1" parent="1" target="HwVrFzxqRJaYthM1YMdk-17">
          <mxGeometry relative="1" as="geometry">
            <mxPoint x="480" y="525" as="sourcePoint" />
            <mxPoint x="700" y="370" as="targetPoint" />
            <Array as="points">
              <mxPoint x="470" y="526" />
              <mxPoint x="470" y="350" />
            </Array>
          </mxGeometry>
        </mxCell>
        <mxCell id="HwVrFzxqRJaYthM1YMdk-32" value="data pengaduan" style="text;strokeColor=none;align=center;fillColor=none;html=1;verticalAlign=middle;whiteSpace=wrap;rounded=0;" vertex="1" parent="1">
          <mxGeometry x="505" y="328" width="100" height="30" as="geometry" />
        </mxCell>
        <mxCell id="HwVrFzxqRJaYthM1YMdk-44" style="edgeStyle=orthogonalEdgeStyle;rounded=0;orthogonalLoop=1;jettySize=auto;html=1;exitX=1;exitY=0.5;exitDx=0;exitDy=0;entryX=0.5;entryY=0;entryDx=0;entryDy=0;" edge="1" parent="1" source="HwVrFzxqRJaYthM1YMdk-34" target="HwVrFzxqRJaYthM1YMdk-17">
          <mxGeometry relative="1" as="geometry" />
        </mxCell>
        <mxCell id="HwVrFzxqRJaYthM1YMdk-46" style="edgeStyle=orthogonalEdgeStyle;rounded=0;orthogonalLoop=1;jettySize=auto;html=1;exitX=0;exitY=0.5;exitDx=0;exitDy=0;entryX=0.144;entryY=-0.052;entryDx=0;entryDy=0;entryPerimeter=0;" edge="1" parent="1" source="HwVrFzxqRJaYthM1YMdk-34" target="HwVrFzxqRJaYthM1YMdk-42">
          <mxGeometry relative="1" as="geometry" />
        </mxCell>
        <object label="" id="HwVrFzxqRJaYthM1YMdk-34">
          <mxCell style="ellipse;whiteSpace=wrap;html=1;aspect=fixed;" vertex="1" parent="1">
            <mxGeometry x="170" y="110" width="175" height="175" as="geometry" />
          </mxCell>
        </object>
        <mxCell id="HwVrFzxqRJaYthM1YMdk-35" value="Registrasi pengaduan&lt;br&gt;2.1" style="text;strokeColor=none;align=center;fillColor=none;html=1;verticalAlign=middle;whiteSpace=wrap;rounded=0;" vertex="1" parent="1">
          <mxGeometry x="230" y="182.5" width="60" height="30" as="geometry" />
        </mxCell>
        <mxCell id="HwVrFzxqRJaYthM1YMdk-40" value="informasi pengaduan" style="text;strokeColor=none;align=center;fillColor=none;html=1;verticalAlign=middle;whiteSpace=wrap;rounded=0;" vertex="1" parent="1">
          <mxGeometry x="100" y="399" width="138" height="30" as="geometry" />
        </mxCell>
        <mxCell id="HwVrFzxqRJaYthM1YMdk-41" style="edgeStyle=orthogonalEdgeStyle;rounded=0;orthogonalLoop=1;jettySize=auto;html=1;exitX=1;exitY=0.5;exitDx=0;exitDy=0;entryX=0;entryY=1;entryDx=0;entryDy=0;" edge="1" parent="1" source="HwVrFzxqRJaYthM1YMdk-42" target="HwVrFzxqRJaYthM1YMdk-1">
          <mxGeometry relative="1" as="geometry" />
        </mxCell>
        <mxCell id="HwVrFzxqRJaYthM1YMdk-42" value="" style="shape=process;whiteSpace=wrap;html=1;backgroundOutline=1;" vertex="1" parent="1">
          <mxGeometry x="30" y="720" width="120" height="60" as="geometry" />
        </mxCell>
        <mxCell id="HwVrFzxqRJaYthM1YMdk-43" value="tabel pengaduan" style="text;strokeColor=none;align=center;fillColor=none;html=1;verticalAlign=middle;whiteSpace=wrap;rounded=0;" vertex="1" parent="1">
          <mxGeometry x="60" y="735" width="60" height="30" as="geometry" />
        </mxCell>
        <mxCell id="HwVrFzxqRJaYthM1YMdk-45" value="data pengaduan" style="text;strokeColor=none;align=center;fillColor=none;html=1;verticalAlign=middle;whiteSpace=wrap;rounded=0;" vertex="1" parent="1">
          <mxGeometry x="470" y="170" width="100" height="30" as="geometry" />
        </mxCell>
        <mxCell id="HwVrFzxqRJaYthM1YMdk-47" value="informasi pengaduan" style="text;strokeColor=none;align=center;fillColor=none;html=1;verticalAlign=middle;whiteSpace=wrap;rounded=0;" vertex="1" parent="1">
          <mxGeometry x="30" y="169" width="122" height="30" as="geometry" />
        </mxCell>
        <mxCell id="HwVrFzxqRJaYthM1YMdk-49" value="informasi pengaduan" style="text;strokeColor=none;align=center;fillColor=none;html=1;verticalAlign=middle;whiteSpace=wrap;rounded=0;" vertex="1" parent="1">
          <mxGeometry x="160" y="720" width="138" height="30" as="geometry" />
        </mxCell>
      </root>
    </mxGraphModel>
  </diagram>
</mxfile>
